<svg width="20" height="21" viewBox="0 0 20 21" fill="none" xmlns="http://www.w3.org/2000/svg">
    <g clip-path="url(#clip0)">
        <path d="M5.69383 10.4339C5.83748 10.5477 5.91135 10.7305 5.87442 10.9093L5.70204 11.7951C5.66099 12.0145 5.78412 12.2258 5.98934 12.303L6.54752 12.5102L7.1057 12.7174C7.31091 12.7946 7.54486 12.7093 7.65977 12.5183L8.10304 11.7585C8.19743 11.6 8.37392 11.5066 8.55861 11.5147C8.82128 11.5269 9.08806 11.5188 9.35073 11.4903C9.53543 11.47 9.71191 11.5472 9.81862 11.6976L10.3317 12.4452C10.4589 12.628 10.701 12.693 10.9022 12.6036L11.4439 12.3558L11.9857 12.1079C12.1909 12.0145 12.2976 11.791 12.2401 11.5757L12.0103 10.7305C11.9611 10.5518 12.0226 10.3649 12.1581 10.243C12.3551 10.0642 12.5398 9.87324 12.7039 9.67009C12.8188 9.52788 13.0035 9.45881 13.18 9.49131L14.0748 9.66196C14.2964 9.70259 14.5098 9.5807 14.5878 9.37754L14.7971 8.82497L15.0064 8.27239C15.0844 8.06923 14.9982 7.83764 14.8053 7.72387L14.0337 7.29319C13.8695 7.2038 13.7751 7.02502 13.7834 6.83812C13.7957 6.57808 13.7875 6.31805 13.7587 6.05395C13.7382 5.87111 13.8162 5.6964 13.968 5.59076L14.7232 5.08287C14.9079 4.95692 14.9736 4.7172 14.8833 4.51811L14.6329 3.98178L14.3826 3.44545C14.2882 3.2423 14.0624 3.13666 13.8449 3.19354L12.9912 3.42107C12.8106 3.46983 12.6177 3.40889 12.4946 3.27074C12.3099 3.06352 12.1088 2.88069 11.8954 2.7141C11.7476 2.60033 11.6738 2.4175 11.7107 2.23466L11.879 1.3611C11.92 1.14169 11.7969 0.930409 11.5917 0.853211L11.0335 0.645994L10.4753 0.438777C10.2701 0.361579 10.0361 0.446903 9.92123 0.637868L9.46976 1.40985C9.37536 1.56831 9.20298 1.6577 9.01829 1.64957C8.75151 1.63738 8.48473 1.64551 8.21796 1.67802C8.03326 1.69833 7.85268 1.62113 7.75007 1.46674L7.24524 0.731319C7.12212 0.552543 6.88407 0.483471 6.68296 0.564733L6.14119 0.81258L5.61174 1.06449C5.40653 1.15794 5.29982 1.38141 5.36138 1.59675L5.59532 2.45406C5.64458 2.62878 5.58712 2.81974 5.44757 2.94163C5.25057 3.12041 5.06587 3.31543 4.9017 3.52265C4.78678 3.66486 4.60209 3.73799 4.4215 3.70143L3.53498 3.53484C3.31335 3.49421 3.09993 3.6161 3.02195 3.81926L2.81263 4.37183L2.60331 4.92441C2.52533 5.12757 2.61152 5.35916 2.80442 5.47293L3.58423 5.91987C3.7443 6.01332 3.83459 6.18397 3.82638 6.36681C3.81407 6.6309 3.82228 6.895 3.85511 7.1591C3.87563 7.34194 3.79765 7.52072 3.64169 7.62229L2.90292 8.11393C2.71823 8.23988 2.65256 8.4796 2.74286 8.67869L2.99322 9.21502L3.24358 9.75135C3.33797 9.9545 3.56371 10.0601 3.78124 10.0033L4.64724 9.77166C4.82783 9.72291 5.01662 9.78385 5.13975 9.91793C5.31213 10.1048 5.49682 10.2795 5.69383 10.4339ZM7.67619 4.22963C8.98956 3.61204 10.5615 4.16462 11.1853 5.4648C11.8092 6.76499 11.251 8.32114 9.93765 8.93873C8.62428 9.55632 7.05234 9.00374 6.42849 7.70356C5.80464 6.40337 6.36282 4.84721 7.67619 4.22963Z"
              fill="#6B6E70"/>
        <path d="M17.2968 13.339L16.952 13.2293C16.8781 13.2049 16.8289 13.144 16.8166 13.0709C16.8001 12.9652 16.7714 12.8596 16.7386 12.758C16.714 12.6889 16.7304 12.6077 16.7837 12.5549L17.0423 12.2867C17.1039 12.2217 17.1121 12.1201 17.0587 12.047L16.911 11.8519L16.7632 11.6569C16.7098 11.5838 16.6113 11.5635 16.5293 11.6041L16.2091 11.7707C16.1394 11.8072 16.0573 11.7991 15.9957 11.7544C15.9095 11.6935 15.8151 11.6366 15.7166 11.5878C15.6509 11.5553 15.6058 11.4863 15.6017 11.4131L15.5935 11.0434C15.5894 10.954 15.5237 10.8768 15.4334 10.8646L15.1913 10.828L14.9491 10.7915C14.8588 10.7793 14.7726 10.8321 14.7439 10.9174L14.6331 11.2587C14.6085 11.3319 14.5469 11.3847 14.4689 11.3969C14.3581 11.4131 14.2473 11.4416 14.1406 11.4781C14.0667 11.5025 13.9887 11.4863 13.9313 11.4334L13.6645 11.1815C13.5988 11.1206 13.4962 11.1125 13.4223 11.1653L13.2253 11.3115L13.0283 11.4578C12.9544 11.5106 12.9339 11.6082 12.975 11.6894L13.1432 12.0145C13.1761 12.0795 13.172 12.1607 13.1268 12.2217C13.0653 12.3111 13.0078 12.4045 12.9585 12.502C12.9257 12.5711 12.8559 12.6117 12.7821 12.6158L12.4127 12.6239C12.3224 12.628 12.2444 12.693 12.228 12.7783L12.191 13.018L12.1541 13.2578C12.1418 13.3472 12.1951 13.4325 12.2813 13.4609L12.6343 13.5706C12.7082 13.595 12.7574 13.6559 12.7697 13.7291C12.7862 13.8388 12.8149 13.9404 12.8518 14.046C12.8765 14.1151 12.86 14.1963 12.8067 14.2492L12.5522 14.5133C12.4907 14.5783 12.4824 14.6798 12.5358 14.753L12.6836 14.948L12.8313 15.143C12.8847 15.2162 12.9832 15.2365 13.0653 15.1959L13.3936 15.0293C13.4593 14.9968 13.5413 15.0008 13.6029 15.0455C13.6932 15.1065 13.7876 15.1633 13.8861 15.2121C13.9559 15.2446 13.9969 15.3137 14.001 15.3868L14.0092 15.7525C14.0133 15.8419 14.079 15.9191 14.1693 15.9313L14.4115 15.9678L14.6536 16.0044C14.7439 16.0166 14.8301 15.9638 14.8588 15.8784L14.9696 15.5331C14.9943 15.46 15.0558 15.4112 15.1297 15.3949C15.2323 15.3787 15.3349 15.3502 15.4334 15.3177C15.5073 15.2934 15.5853 15.3096 15.6386 15.3624L15.9095 15.6184C15.9752 15.6794 16.0778 15.6875 16.1517 15.6347L16.3487 15.4884L16.5457 15.3421C16.6196 15.2893 16.6401 15.1918 16.599 15.1105L16.4308 14.7895C16.3938 14.7205 16.402 14.6433 16.4472 14.5783C16.5087 14.4929 16.5662 14.3995 16.6154 14.302C16.6483 14.237 16.7181 14.1923 16.7919 14.1882L17.1654 14.1801C17.2557 14.176 17.3337 14.111 17.346 14.0216L17.3829 13.7819L17.4199 13.5422C17.4404 13.4528 17.3829 13.3675 17.2968 13.339ZM15.8644 13.5381C15.7864 14.1232 15.2446 14.5376 14.6536 14.4604C14.0626 14.3832 13.644 13.8469 13.7219 13.2618C13.7999 12.6767 14.3417 12.2623 14.9327 12.3395C15.5237 12.4167 15.9423 12.953 15.8644 13.5381Z"
              fill="#6B6E70"/>
        <path d="M12.5893 15.8459L12.068 15.7566C11.9572 15.7362 11.871 15.659 11.8382 15.5534C11.793 15.4031 11.7315 15.2568 11.6617 15.1186C11.6125 15.0211 11.6207 14.9074 11.6863 14.818L12.0024 14.3832C12.0803 14.2776 12.068 14.1313 11.9736 14.0379L11.7233 13.79L11.4729 13.5422C11.3785 13.4487 11.2308 13.4365 11.1241 13.5097L10.6931 13.8144C10.6028 13.8794 10.4838 13.8835 10.3812 13.8347C10.2416 13.7616 10.098 13.7006 9.94612 13.6519C9.84352 13.6153 9.76554 13.53 9.74501 13.4243L9.65472 12.8921C9.6342 12.7621 9.51928 12.6646 9.38794 12.6646H9.03087H8.6738C8.53836 12.6646 8.42754 12.758 8.40292 12.888L8.31262 13.4C8.2921 13.5097 8.21412 13.595 8.1033 13.6275C7.94324 13.6763 7.79138 13.7372 7.64773 13.8103C7.54923 13.8591 7.4302 13.855 7.33991 13.79L6.90486 13.4812C6.79814 13.404 6.65039 13.4162 6.55599 13.5097L6.30563 13.7575L6.05527 14.0054C5.96087 14.0988 5.94856 14.2451 6.02244 14.3507L6.33026 14.7855C6.39182 14.8749 6.40003 14.9927 6.35078 15.0861C6.2769 15.2243 6.21534 15.3706 6.16609 15.5209C6.13325 15.6265 6.04296 15.6997 5.93625 15.72L5.4068 15.8053C5.27956 15.8256 5.18106 15.9394 5.17285 16.0653V16.4188V16.7723C5.17285 16.9064 5.26725 17.0161 5.39859 17.0405L5.92804 17.1299C6.03475 17.1502 6.12504 17.2274 6.15788 17.329C6.20713 17.4793 6.26459 17.6256 6.33847 17.7678C6.38772 17.8653 6.37951 17.9831 6.31794 18.0684L6.00602 18.4991C5.92804 18.6048 5.94035 18.751 6.03475 18.8445L6.28511 19.0923L6.53547 19.3402C6.62987 19.4336 6.77762 19.4458 6.88433 19.3727L7.32349 19.068C7.41379 19.007 7.53281 18.9989 7.62721 19.0476C7.76675 19.1208 7.91451 19.1817 8.06637 19.2305C8.17308 19.263 8.24695 19.3524 8.26748 19.458L8.35367 19.9822C8.37419 20.1122 8.48911 20.2097 8.62044 20.2097H8.97751H9.33459C9.47003 20.2097 9.58084 20.1162 9.60547 19.9862L9.69576 19.4661C9.71628 19.3564 9.79427 19.2711 9.90098 19.2386C10.0446 19.1939 10.1842 19.137 10.3196 19.068C10.4181 19.0192 10.5371 19.0273 10.6233 19.0883L11.0625 19.4011C11.1692 19.4783 11.317 19.4661 11.4113 19.3727L11.6617 19.1248L11.9121 18.877C12.0065 18.7835 12.0188 18.6373 11.9449 18.5316L11.6412 18.105C11.5755 18.0156 11.5714 17.8978 11.6248 17.8003C11.6986 17.6621 11.7602 17.5199 11.8095 17.3696C11.8464 17.268 11.9326 17.1908 12.0393 17.1705L12.577 17.0811C12.7083 17.0608 12.8068 16.947 12.8068 16.817V16.4635V16.11C12.8191 15.98 12.7206 15.8663 12.5893 15.8459ZM9.01445 17.9831C8.14845 17.9912 7.43841 17.3005 7.4302 16.4432C7.42199 15.5859 8.11972 14.883 8.98572 14.8749C9.85173 14.8667 10.5618 15.5575 10.57 16.4148C10.5782 17.2721 9.88046 17.975 9.01445 17.9831Z"
              fill="#6B6E70"/>
    </g>
    <defs>
        <clipPath id="clip0">
            <rect width="20" height="19.7992" fill="white" transform="translate(0 0.410339)"/>
        </clipPath>
    </defs>
</svg>
