<svg width="58" height="80" viewBox="0 0 58 80" fill="none" xmlns="http://www.w3.org/2000/svg">
<g clip-path="url(#clip0)">
<path d="M41.7974 56.0659L45.4557 50.1297L52.0576 47.8781L52.789 40.9442L57.756 36.0544L55.3945 29.4909L57.756 22.9273L52.7891 18.0375L52.0577 11.1038L45.4559 8.85219L41.7976 2.91578L34.878 3.75125L29.0001 0L23.1221 3.75156L16.2027 2.91609L12.5445 8.85234L5.94258 11.1039L5.21117 18.0377L0.244141 22.9275L2.6057 29.4911L0.244141 36.0547L5.21102 40.9444L5.94242 47.8783L12.5443 50.1298L16.2026 56.0661L23.1221 55.2308L29.0001 58.9822L34.878 55.2308L41.7974 56.0659ZM8.7768 29.4911C8.7768 18.34 17.849 9.26781 29.0001 9.26781C40.1512 9.26781 49.2234 18.34 49.2234 29.4911C49.2234 40.6422 40.1512 49.7144 29.0001 49.7144C17.849 49.7144 8.7768 40.6422 8.7768 29.4911Z" fill="#FFF50E"/>
<path d="M29.0016 13.9583C20.4367 13.9583 13.4688 20.9262 13.4688 29.4911C13.4688 38.0559 20.4367 45.0239 29.0016 45.0239C37.5664 45.0239 44.5344 38.0559 44.5344 29.4911C44.5344 20.9262 37.5664 13.9583 29.0016 13.9583Z" fill="white"/>
<path d="M22.0157 60.0889L13.7845 61.0826L9.43555 54.0253L7.95711 53.5212L1.58008 73.4534L13.0605 72.822L22.0426 80.0001L27.3282 63.4795L22.0157 60.0889Z" fill="#FFF50E"/>
<path d="M48.5645 54.0255L44.2155 61.0826L35.9844 60.0889L30.6719 63.4795L35.9575 80.0001L44.9395 72.822L56.42 73.4534L50.043 53.5212L48.5645 54.0255Z" fill="#FFF50E"/>
</g>
<defs>
<clipPath id="clip0">
<rect width="57.5119" height="80.0001" fill="white" transform="translate(0.244141)"/>
</clipPath>
</defs>
</svg>
