<svg width="500" height="500" viewBox="0 0 500 500" fill="none" xmlns="http://www.w3.org/2000/svg">
<rect width="500" height="500" fill="#FBFBFB"/>
<path d="M76.48 368V321.92H94.432C97.184 321.92 99.5307 322.485 101.472 323.616C103.435 324.747 104.928 326.24 105.952 328.096C106.997 329.931 107.52 331.915 107.52 334.048C107.52 336.544 106.88 338.731 105.6 340.608C104.32 342.485 102.592 343.776 100.416 344.48L100.352 342.912C103.317 343.701 105.621 345.152 107.264 347.264C108.907 349.376 109.728 351.893 109.728 354.816C109.728 357.504 109.173 359.829 108.064 361.792C106.976 363.755 105.397 365.28 103.328 366.368C101.28 367.456 98.848 368 96.032 368H76.48ZM82.24 362.56H94.944C96.6507 362.56 98.176 362.251 99.52 361.632C100.864 360.992 101.92 360.096 102.688 358.944C103.477 357.792 103.872 356.405 103.872 354.784C103.872 353.227 103.52 351.829 102.816 350.592C102.133 349.355 101.163 348.373 99.904 347.648C98.6667 346.901 97.2267 346.528 95.584 346.528H82.24V362.56ZM82.24 341.152H94.368C95.7333 341.152 96.96 340.864 98.048 340.288C99.1573 339.691 100.032 338.859 100.672 337.792C101.333 336.725 101.664 335.477 101.664 334.048C101.664 332.064 100.992 330.443 99.648 329.184C98.304 327.925 96.544 327.296 94.368 327.296H82.24V341.152ZM116.105 368V333.44H121.193V341.792L120.361 340.704C120.766 339.637 121.289 338.656 121.929 337.76C122.59 336.864 123.326 336.128 124.137 335.552C125.033 334.827 126.046 334.272 127.177 333.888C128.308 333.504 129.46 333.28 130.633 333.216C131.806 333.131 132.905 333.205 133.929 333.44V338.784C132.734 338.464 131.422 338.379 129.993 338.528C128.564 338.677 127.241 339.2 126.025 340.096C124.916 340.885 124.052 341.845 123.433 342.976C122.836 344.107 122.42 345.333 122.185 346.656C121.95 347.957 121.833 349.291 121.833 350.656V368H116.105ZM148.679 368.96C146.098 368.96 143.932 368.491 142.183 367.552C140.455 366.592 139.143 365.333 138.247 363.776C137.372 362.219 136.935 360.512 136.935 358.656C136.935 356.843 137.276 355.275 137.959 353.952C138.663 352.608 139.644 351.499 140.903 350.624C142.162 349.728 143.666 349.024 145.415 348.512C147.058 348.064 148.892 347.68 150.919 347.36C152.967 347.019 155.036 346.709 157.127 346.432C159.218 346.155 161.17 345.888 162.983 345.632L160.935 346.816C160.999 343.744 160.38 341.472 159.079 340C157.799 338.528 155.58 337.792 152.423 337.792C150.332 337.792 148.498 338.272 146.919 339.232C145.362 340.171 144.263 341.707 143.623 343.84L138.215 342.208C139.047 339.179 140.658 336.8 143.047 335.072C145.436 333.344 148.583 332.48 152.487 332.48C155.623 332.48 158.311 333.045 160.551 334.176C162.812 335.285 164.434 336.971 165.415 339.232C165.906 340.299 166.215 341.461 166.343 342.72C166.471 343.957 166.535 345.259 166.535 346.624V368H161.479V359.712L162.663 360.48C161.362 363.275 159.538 365.387 157.191 366.816C154.866 368.245 152.028 368.96 148.679 368.96ZM149.543 364.192C151.591 364.192 153.362 363.829 154.855 363.104C156.37 362.357 157.586 361.387 158.503 360.192C159.42 358.976 160.018 357.653 160.295 356.224C160.615 355.157 160.786 353.973 160.807 352.672C160.85 351.349 160.871 350.336 160.871 349.632L162.855 350.496C160.999 350.752 159.175 350.997 157.383 351.232C155.591 351.467 153.895 351.723 152.295 352C150.695 352.256 149.255 352.565 147.975 352.928C147.036 353.227 146.151 353.611 145.319 354.08C144.508 354.549 143.847 355.157 143.335 355.904C142.844 356.629 142.599 357.536 142.599 358.624C142.599 359.563 142.834 360.459 143.303 361.312C143.794 362.165 144.54 362.859 145.543 363.392C146.567 363.925 147.9 364.192 149.543 364.192ZM174.823 368L174.855 321.92H180.615V350.08L195.111 333.44H202.503L187.239 350.72L204.295 368H196.327L180.615 351.36V368H174.823ZM217.093 368V366.976L238.053 338.624H218.821V333.44H247.237V334.528L226.309 362.816H246.149V368H217.093ZM265.298 368.96C262.077 368.96 259.314 368.16 257.01 366.56C254.706 364.939 252.925 362.752 251.666 360C250.429 357.248 249.81 354.144 249.81 350.688C249.81 347.232 250.429 344.128 251.666 341.376C252.925 338.624 254.706 336.459 257.01 334.88C259.314 333.28 262.066 332.48 265.266 332.48C268.53 332.48 271.271 333.269 273.49 334.848C275.709 336.427 277.383 338.592 278.514 341.344C279.666 344.096 280.242 347.211 280.242 350.688C280.242 354.123 279.666 357.227 278.514 360C277.383 362.752 275.709 364.939 273.49 366.56C271.271 368.16 268.541 368.96 265.298 368.96ZM266.002 363.744C268.327 363.744 270.237 363.189 271.73 362.08C273.223 360.949 274.322 359.403 275.026 357.44C275.751 355.456 276.114 353.205 276.114 350.688C276.114 348.128 275.751 345.877 275.026 343.936C274.322 341.973 273.234 340.448 271.762 339.36C270.29 338.251 268.423 337.696 266.162 337.696C263.815 337.696 261.874 338.272 260.338 339.424C258.823 340.576 257.693 342.133 256.946 344.096C256.221 346.059 255.858 348.256 255.858 350.688C255.858 353.141 256.231 355.36 256.978 357.344C257.725 359.307 258.845 360.864 260.338 362.016C261.853 363.168 263.741 363.744 266.002 363.744ZM276.114 368V342.56H275.474V321.92H281.202V368H276.114ZM285.047 383.36V377.92H286.904C288.568 377.92 289.837 377.504 290.712 376.672C291.586 375.84 292.024 374.517 292.024 372.704V333.44H297.72V374.656C297.72 377.493 296.984 379.648 295.512 381.12C294.061 382.613 291.906 383.36 289.048 383.36H285.047ZM292.024 327.328V321.44H297.72V327.328H292.024ZM331.78 382.784C330.457 383.339 329.103 383.445 327.716 383.104C326.351 382.784 325.231 382.123 324.356 381.12C323.567 380.203 323.065 379.093 322.852 377.792C322.66 376.512 322.799 375.221 323.268 373.92C323.609 372.96 324.057 372.011 324.612 371.072C325.188 370.133 325.743 369.28 326.276 368.512C326.639 367.979 327.183 367.275 327.908 366.4C328.633 365.525 329.391 364.576 330.18 363.552C330.969 362.507 331.652 361.493 332.228 360.512L336.292 360.864C335.823 361.739 335.279 362.645 334.66 363.584C334.063 364.523 333.455 365.429 332.836 366.304C332.239 367.157 331.684 367.936 331.172 368.64C330.681 369.344 330.297 369.92 330.02 370.368C329.465 371.264 328.964 372.139 328.516 372.992C328.089 373.867 327.769 374.667 327.556 375.392C327.449 375.776 327.396 376.224 327.396 376.736C327.396 377.269 327.577 377.728 327.94 378.112C328.58 378.752 329.327 378.944 330.18 378.688C331.033 378.453 331.78 378.059 332.42 377.504L334.756 380.416C334.415 380.885 333.988 381.323 333.476 381.728C332.985 382.133 332.42 382.485 331.78 382.784ZM321.956 368.96C318.564 368.96 315.599 368.213 313.06 366.72C310.543 365.205 308.58 363.104 307.172 360.416C305.764 357.707 305.06 354.549 305.06 350.944C305.06 347.168 305.753 343.904 307.14 341.152C308.527 338.379 310.457 336.245 312.932 334.752C315.428 333.237 318.351 332.48 321.7 332.48C325.177 332.48 328.132 333.28 330.564 334.88C333.017 336.48 334.852 338.763 336.068 341.728C337.305 344.693 337.839 348.224 337.668 352.32H331.908V350.272C331.844 346.027 330.98 342.859 329.316 340.768C327.652 338.656 325.177 337.6 321.892 337.6C318.372 337.6 315.695 338.731 313.86 340.992C312.025 343.253 311.108 346.496 311.108 350.72C311.108 354.795 312.025 357.952 313.86 360.192C315.695 362.432 318.308 363.552 321.7 363.552C323.983 363.552 325.967 363.029 327.652 361.984C329.337 360.939 330.66 359.435 331.62 357.472L337.092 359.36C335.748 362.411 333.721 364.779 331.012 366.464C328.324 368.128 325.305 368.96 321.956 368.96ZM309.188 352.32V347.744H334.724V352.32H309.188ZM359.353 368.96C355.854 368.96 352.878 368.181 350.425 366.624C347.993 365.045 346.137 362.88 344.857 360.128C343.577 357.376 342.915 354.24 342.873 350.72C342.915 347.115 343.587 343.947 344.889 341.216C346.211 338.464 348.099 336.32 350.553 334.784C353.006 333.248 355.961 332.48 359.417 332.48C363.065 332.48 366.201 333.376 368.825 335.168C371.47 336.96 373.241 339.413 374.137 342.528L368.505 344.224C367.779 342.219 366.595 340.661 364.953 339.552C363.331 338.443 361.465 337.888 359.353 337.888C356.985 337.888 355.033 338.443 353.497 339.552C351.961 340.64 350.819 342.155 350.073 344.096C349.326 346.016 348.942 348.224 348.921 350.72C348.963 354.56 349.849 357.664 351.577 360.032C353.326 362.379 355.918 363.552 359.353 363.552C361.614 363.552 363.491 363.04 364.985 362.016C366.478 360.971 367.609 359.467 368.377 357.504L374.137 359.008C372.942 362.229 371.075 364.693 368.537 366.4C365.998 368.107 362.937 368.96 359.353 368.96ZM380.37 327.328V321.44H386.066V327.328H380.37ZM380.37 368V333.44H386.066V368H380.37ZM405.492 368.96C402.91 368.96 400.745 368.491 398.996 367.552C397.268 366.592 395.956 365.333 395.06 363.776C394.185 362.219 393.748 360.512 393.748 358.656C393.748 356.843 394.089 355.275 394.772 353.952C395.476 352.608 396.457 351.499 397.716 350.624C398.974 349.728 400.478 349.024 402.228 348.512C403.87 348.064 405.705 347.68 407.732 347.36C409.78 347.019 411.849 346.709 413.94 346.432C416.03 346.155 417.982 345.888 419.796 345.632L417.748 346.816C417.812 343.744 417.193 341.472 415.892 340C414.612 338.528 412.393 337.792 409.236 337.792C407.145 337.792 405.31 338.272 403.732 339.232C402.174 340.171 401.076 341.707 400.436 343.84L395.028 342.208C395.86 339.179 397.47 336.8 399.86 335.072C402.249 333.344 405.396 332.48 409.3 332.48C412.436 332.48 415.124 333.045 417.364 334.176C419.625 335.285 421.246 336.971 422.228 339.232C422.718 340.299 423.028 341.461 423.156 342.72C423.284 343.957 423.347 345.259 423.347 346.624V368H418.292V359.712L419.476 360.48C418.174 363.275 416.35 365.387 414.004 366.816C411.678 368.245 408.841 368.96 405.492 368.96ZM406.356 364.192C408.404 364.192 410.174 363.829 411.668 363.104C413.182 362.357 414.398 361.387 415.316 360.192C416.233 358.976 416.83 357.653 417.108 356.224C417.428 355.157 417.598 353.973 417.62 352.672C417.662 351.349 417.684 350.336 417.684 349.632L419.668 350.496C417.812 350.752 415.988 350.997 414.196 351.232C412.404 351.467 410.708 351.723 409.108 352C407.508 352.256 406.068 352.565 404.788 352.928C403.849 353.227 402.964 353.611 402.132 354.08C401.321 354.549 400.66 355.157 400.148 355.904C399.657 356.629 399.411 357.536 399.411 358.624C399.411 359.563 399.646 360.459 400.116 361.312C400.606 362.165 401.353 362.859 402.356 363.392C403.38 363.925 404.713 364.192 406.356 364.192Z" fill="#ABABAB"/>
<path d="M325 132.75H331.25V263.922L329.297 261.383L276.172 192.633C274.414 190.328 271.641 189 268.75 189C265.859 189 263.125 190.328 261.328 192.633L228.906 234.586L216.992 217.906C215.234 215.445 212.422 214 209.375 214C206.328 214 203.516 215.445 201.758 217.945L170.508 261.695L168.75 264.117V264V132.75H175H325ZM175 114H150V289H175H325H350V114H325H175ZM206.25 189C208.712 189 211.15 188.515 213.425 187.573C215.7 186.63 217.767 185.249 219.508 183.508C221.249 181.767 222.63 179.7 223.573 177.425C224.515 175.15 225 172.712 225 170.25C225 167.788 224.515 165.35 223.573 163.075C222.63 160.8 221.249 158.733 219.508 156.992C217.767 155.251 215.7 153.87 213.425 152.927C211.15 151.985 208.712 151.5 206.25 151.5C203.788 151.5 201.35 151.985 199.075 152.927C196.8 153.87 194.733 155.251 192.992 156.992C191.251 158.733 189.87 160.8 188.927 163.075C187.985 165.35 187.5 167.788 187.5 170.25C187.5 172.712 187.985 175.15 188.927 177.425C189.87 179.7 191.251 181.767 192.992 183.508C194.733 185.249 196.8 186.63 199.075 187.573C201.35 188.515 203.788 189 206.25 189Z" fill="#ABABAB"/>
</svg>
